<svg width="59" height="22" viewBox="0 0 59 22" fill="none" xmlns="http://www.w3.org/2000/svg">
<path d="M12.5169 14.248C12.5169 15.048 12.3169 15.8 11.9169 16.504C11.5329 17.208 10.9569 17.8 10.1889 18.28C9.43694 18.76 8.54094 19.048 7.50094 19.144V21.088H5.94094V19.144C4.43694 19 3.22094 18.528 2.29294 17.728C1.36494 16.928 0.900938 15.872 0.900938 14.56H3.82894C3.87694 15.184 4.07694 15.704 4.42894 16.12C4.78094 16.52 5.28494 16.776 5.94094 16.888V11.608C4.86894 11.336 3.99694 11.064 3.32494 10.792C2.65294 10.504 2.07694 10.056 1.59694 9.448C1.13294 8.84 0.900938 8.008 0.900938 6.952C0.900938 5.624 1.36494 4.528 2.29294 3.664C3.22094 2.784 4.43694 2.272 5.94094 2.128V0.183999H7.50094V2.128C8.90894 2.256 10.0369 2.704 10.8849 3.472C11.7489 4.224 12.2369 5.264 12.3489 6.592H9.42094C9.37294 6.096 9.18094 5.656 8.84494 5.272C8.50894 4.872 8.06094 4.6 7.50094 4.456V9.64C8.57294 9.896 9.44494 10.168 10.1169 10.456C10.7889 10.728 11.3569 11.168 11.8209 11.776C12.2849 12.368 12.5169 13.192 12.5169 14.248ZM3.68494 6.808C3.68494 7.464 3.87694 7.976 4.26094 8.344C4.66094 8.712 5.22094 9.008 5.94094 9.232V4.384C5.25294 4.464 4.70094 4.712 4.28494 5.128C3.88494 5.544 3.68494 6.104 3.68494 6.808ZM7.50094 16.888C8.20494 16.776 8.75694 16.496 9.15694 16.048C9.55694 15.584 9.75694 15.032 9.75694 14.392C9.75694 13.752 9.55694 13.256 9.15694 12.904C8.77294 12.536 8.22094 12.24 7.50094 12.016V16.888ZM16.4623 5.824C16.5583 4.336 17.1263 3.176 18.1663 2.344C19.2223 1.512 20.5663 1.096 22.1983 1.096C23.3183 1.096 24.2863 1.296 25.1023 1.696C25.9183 2.096 26.5343 2.64 26.9503 3.328C27.3663 4.016 27.5743 4.792 27.5743 5.656C27.5743 6.648 27.3103 7.496 26.7823 8.2C26.2543 8.904 25.6223 9.376 24.8863 9.616V9.712C25.8303 10 26.5663 10.528 27.0943 11.296C27.6223 12.048 27.8863 13.016 27.8863 14.2C27.8863 15.144 27.6703 15.984 27.2383 16.72C26.8063 17.456 26.1663 18.04 25.3183 18.472C24.4703 18.888 23.4543 19.096 22.2703 19.096C20.5423 19.096 19.1183 18.656 17.9983 17.776C16.8943 16.88 16.3023 15.6 16.2223 13.936H18.8623C18.9263 14.784 19.2543 15.48 19.8463 16.024C20.4383 16.552 21.2383 16.816 22.2463 16.816C23.2223 16.816 23.9743 16.552 24.5023 16.024C25.0303 15.48 25.2943 14.784 25.2943 13.936C25.2943 12.816 24.9343 12.024 24.2143 11.56C23.5103 11.08 22.4223 10.84 20.9503 10.84H20.3263V8.584H20.9743C22.2703 8.568 23.2543 8.352 23.9263 7.936C24.6143 7.52 24.9583 6.864 24.9583 5.968C24.9583 5.2 24.7103 4.592 24.2143 4.144C23.7183 3.68 23.0143 3.448 22.1023 3.448C21.2063 3.448 20.5103 3.68 20.0143 4.144C19.5183 4.592 19.2223 5.152 19.1263 5.824H16.4623ZM33.7123 9.856C32.0483 9.024 31.2163 7.712 31.2163 5.92C31.2163 5.056 31.4323 4.264 31.8643 3.544C32.2963 2.824 32.9443 2.256 33.8083 1.84C34.6723 1.408 35.7283 1.192 36.9763 1.192C38.2083 1.192 39.2563 1.408 40.1203 1.84C41.0003 2.256 41.6563 2.824 42.0883 3.544C42.5203 4.264 42.7363 5.056 42.7363 5.92C42.7363 6.816 42.5043 7.608 42.0403 8.296C41.5923 8.968 40.9923 9.488 40.2403 9.856C41.1523 10.192 41.8723 10.744 42.4003 11.512C42.9283 12.264 43.1923 13.152 43.1923 14.176C43.1923 15.216 42.9283 16.136 42.4003 16.936C41.8723 17.736 41.1363 18.352 40.1923 18.784C39.2483 19.216 38.1763 19.432 36.9763 19.432C35.7763 19.432 34.7043 19.216 33.7603 18.784C32.8323 18.352 32.1043 17.736 31.5763 16.936C31.0483 16.136 30.7843 15.216 30.7843 14.176C30.7843 13.136 31.0483 12.24 31.5763 11.488C32.1043 10.736 32.8163 10.192 33.7123 9.856ZM40.1203 6.256C40.1203 5.36 39.8403 4.672 39.2803 4.192C38.7203 3.712 37.9523 3.472 36.9763 3.472C36.0163 3.472 35.2563 3.712 34.6963 4.192C34.1363 4.672 33.8563 5.368 33.8563 6.28C33.8563 7.08 34.1443 7.736 34.7203 8.248C35.3123 8.744 36.0643 8.992 36.9763 8.992C37.8883 8.992 38.6403 8.736 39.2323 8.224C39.8243 7.712 40.1203 7.056 40.1203 6.256ZM36.9763 11.056C35.9203 11.056 35.0563 11.32 34.3843 11.848C33.7283 12.36 33.4003 13.104 33.4003 14.08C33.4003 14.992 33.7203 15.736 34.3603 16.312C35.0003 16.872 35.8723 17.152 36.9763 17.152C38.0643 17.152 38.9203 16.864 39.5443 16.288C40.1843 15.712 40.5043 14.976 40.5043 14.08C40.5043 13.12 40.1763 12.376 39.5203 11.848C38.8803 11.32 38.0323 11.056 36.9763 11.056ZM46.065 10.024C46.065 7.256 46.529 5.096 47.457 3.544C48.401 1.976 50.017 1.192 52.305 1.192C54.593 1.192 56.201 1.976 57.129 3.544C58.073 5.096 58.545 7.256 58.545 10.024C58.545 12.824 58.073 15.016 57.129 16.6C56.201 18.168 54.593 18.952 52.305 18.952C50.017 18.952 48.401 18.168 47.457 16.6C46.529 15.016 46.065 12.824 46.065 10.024ZM55.857 10.024C55.857 8.728 55.769 7.632 55.593 6.736C55.433 5.84 55.097 5.112 54.585 4.552C54.073 3.976 53.313 3.688 52.305 3.688C51.297 3.688 50.537 3.976 50.025 4.552C49.513 5.112 49.169 5.84 48.993 6.736C48.833 7.632 48.753 8.728 48.753 10.024C48.753 11.368 48.833 12.496 48.993 13.408C49.153 14.32 49.489 15.056 50.001 15.616C50.529 16.176 51.297 16.456 52.305 16.456C53.313 16.456 54.073 16.176 54.585 15.616C55.113 15.056 55.457 14.32 55.617 13.408C55.777 12.496 55.857 11.368 55.857 10.024Z" fill="#3A8375"/>
</svg>
