<svg width="59" height="22" viewBox="0 0 59 22" fill="none" xmlns="http://www.w3.org/2000/svg">
<path d="M12.2826 14.248C12.2826 15.048 12.0826 15.8 11.6826 16.504C11.2986 17.208 10.7226 17.8 9.95456 18.28C9.20256 18.76 8.30656 19.048 7.26656 19.144V21.088H5.70656V19.144C4.20256 19 2.98656 18.528 2.05856 17.728C1.13056 16.928 0.666563 15.872 0.666563 14.56H3.59456C3.64256 15.184 3.84256 15.704 4.19456 16.12C4.54656 16.52 5.05056 16.776 5.70656 16.888V11.608C4.63456 11.336 3.76256 11.064 3.09056 10.792C2.41856 10.504 1.84256 10.056 1.36256 9.448C0.898563 8.84 0.666563 8.008 0.666563 6.952C0.666563 5.624 1.13056 4.528 2.05856 3.664C2.98656 2.784 4.20256 2.272 5.70656 2.128V0.183999H7.26656V2.128C8.67456 2.256 9.80256 2.704 10.6506 3.472C11.5146 4.224 12.0026 5.264 12.1146 6.592H9.18656C9.13856 6.096 8.94656 5.656 8.61056 5.272C8.27456 4.872 7.82656 4.6 7.26656 4.456V9.64C8.33856 9.896 9.21056 10.168 9.88256 10.456C10.5546 10.728 11.1226 11.168 11.5866 11.776C12.0506 12.368 12.2826 13.192 12.2826 14.248ZM3.45056 6.808C3.45056 7.464 3.64256 7.976 4.02656 8.344C4.42656 8.712 4.98656 9.008 5.70656 9.232V4.384C5.01856 4.464 4.46656 4.712 4.05056 5.128C3.65056 5.544 3.45056 6.104 3.45056 6.808ZM7.26656 16.888C7.97056 16.776 8.52256 16.496 8.92256 16.048C9.32256 15.584 9.52256 15.032 9.52256 14.392C9.52256 13.752 9.32256 13.256 8.92256 12.904C8.53856 12.536 7.98656 12.24 7.26656 12.016V16.888ZM15.9399 15.352V13.288L24.0039 1.72H27.3159V12.976H29.5479V15.352H27.3159V19H24.6279V15.352H15.9399ZM24.7479 4.504L19.0839 12.976H24.7479V4.504ZM31.767 5.824C31.863 4.336 32.431 3.176 33.471 2.344C34.527 1.512 35.871 1.096 37.503 1.096C38.623 1.096 39.591 1.296 40.407 1.696C41.223 2.096 41.839 2.64 42.255 3.328C42.671 4.016 42.879 4.792 42.879 5.656C42.879 6.648 42.615 7.496 42.087 8.2C41.559 8.904 40.927 9.376 40.191 9.616V9.712C41.135 10 41.871 10.528 42.399 11.296C42.927 12.048 43.191 13.016 43.191 14.2C43.191 15.144 42.975 15.984 42.543 16.72C42.111 17.456 41.471 18.04 40.623 18.472C39.775 18.888 38.759 19.096 37.575 19.096C35.847 19.096 34.423 18.656 33.303 17.776C32.199 16.88 31.607 15.6 31.527 13.936H34.167C34.231 14.784 34.559 15.48 35.151 16.024C35.743 16.552 36.543 16.816 37.551 16.816C38.527 16.816 39.279 16.552 39.807 16.024C40.335 15.48 40.599 14.784 40.599 13.936C40.599 12.816 40.239 12.024 39.519 11.56C38.815 11.08 37.727 10.84 36.255 10.84H35.631V8.584H36.279C37.575 8.568 38.559 8.352 39.231 7.936C39.919 7.52 40.263 6.864 40.263 5.968C40.263 5.2 40.015 4.592 39.519 4.144C39.023 3.68 38.319 3.448 37.407 3.448C36.511 3.448 35.815 3.68 35.319 4.144C34.823 4.592 34.527 5.152 34.431 5.824H31.767ZM46.065 10.024C46.065 7.256 46.529 5.096 47.457 3.544C48.401 1.976 50.017 1.192 52.305 1.192C54.593 1.192 56.201 1.976 57.129 3.544C58.073 5.096 58.545 7.256 58.545 10.024C58.545 12.824 58.073 15.016 57.129 16.6C56.201 18.168 54.593 18.952 52.305 18.952C50.017 18.952 48.401 18.168 47.457 16.6C46.529 15.016 46.065 12.824 46.065 10.024ZM55.857 10.024C55.857 8.728 55.769 7.632 55.593 6.736C55.433 5.84 55.097 5.112 54.585 4.552C54.073 3.976 53.313 3.688 52.305 3.688C51.297 3.688 50.537 3.976 50.025 4.552C49.513 5.112 49.169 5.84 48.993 6.736C48.833 7.632 48.753 8.728 48.753 10.024C48.753 11.368 48.833 12.496 48.993 13.408C49.153 14.32 49.489 15.056 50.001 15.616C50.529 16.176 51.297 16.456 52.305 16.456C53.313 16.456 54.073 16.176 54.585 15.616C55.113 15.056 55.457 14.32 55.617 13.408C55.777 12.496 55.857 11.368 55.857 10.024Z" fill="#3A8375"/>
</svg>
