<svg width="58" height="22" viewBox="0 0 58 22" fill="none" xmlns="http://www.w3.org/2000/svg">
<path d="M12.2669 14.248C12.2669 15.048 12.0669 15.8 11.6669 16.504C11.2829 17.208 10.7069 17.8 9.93894 18.28C9.18694 18.76 8.29094 19.048 7.25094 19.144V21.088H5.69094V19.144C4.18694 19 2.97094 18.528 2.04294 17.728C1.11494 16.928 0.650938 15.872 0.650938 14.56H3.57894C3.62694 15.184 3.82694 15.704 4.17894 16.12C4.53094 16.52 5.03494 16.776 5.69094 16.888V11.608C4.61894 11.336 3.74694 11.064 3.07494 10.792C2.40294 10.504 1.82694 10.056 1.34694 9.448C0.882938 8.84 0.650938 8.008 0.650938 6.952C0.650938 5.624 1.11494 4.528 2.04294 3.664C2.97094 2.784 4.18694 2.272 5.69094 2.128V0.183999H7.25094V2.128C8.65894 2.256 9.78694 2.704 10.6349 3.472C11.4989 4.224 11.9869 5.264 12.0989 6.592H9.17094C9.12294 6.096 8.93094 5.656 8.59494 5.272C8.25894 4.872 7.81094 4.6 7.25094 4.456V9.64C8.32294 9.896 9.19494 10.168 9.86694 10.456C10.5389 10.728 11.1069 11.168 11.5709 11.776C12.0349 12.368 12.2669 13.192 12.2669 14.248ZM3.43494 6.808C3.43494 7.464 3.62694 7.976 4.01094 8.344C4.41094 8.712 4.97094 9.008 5.69094 9.232V4.384C5.00294 4.464 4.45094 4.712 4.03494 5.128C3.63494 5.544 3.43494 6.104 3.43494 6.808ZM7.25094 16.888C7.95494 16.776 8.50694 16.496 8.90694 16.048C9.30694 15.584 9.50694 15.032 9.50694 14.392C9.50694 13.752 9.30694 13.256 8.90694 12.904C8.52294 12.536 7.97094 12.24 7.25094 12.016V16.888ZM27.3483 3.616L20.6763 19H17.9163L24.6603 3.904H15.7803V1.576H27.3483V3.616ZM29.69 10.024C29.69 7.256 30.154 5.096 31.082 3.544C32.026 1.976 33.642 1.192 35.93 1.192C38.218 1.192 39.826 1.976 40.754 3.544C41.698 5.096 42.17 7.256 42.17 10.024C42.17 12.824 41.698 15.016 40.754 16.6C39.826 18.168 38.218 18.952 35.93 18.952C33.642 18.952 32.026 18.168 31.082 16.6C30.154 15.016 29.69 12.824 29.69 10.024ZM39.482 10.024C39.482 8.728 39.394 7.632 39.218 6.736C39.058 5.84 38.722 5.112 38.21 4.552C37.698 3.976 36.938 3.688 35.93 3.688C34.922 3.688 34.162 3.976 33.65 4.552C33.138 5.112 32.794 5.84 32.618 6.736C32.458 7.632 32.378 8.728 32.378 10.024C32.378 11.368 32.458 12.496 32.618 13.408C32.778 14.32 33.114 15.056 33.626 15.616C34.154 16.176 34.922 16.456 35.93 16.456C36.938 16.456 37.698 16.176 38.21 15.616C38.738 15.056 39.082 14.32 39.242 13.408C39.402 12.496 39.482 11.368 39.482 10.024ZM45.065 10.024C45.065 7.256 45.529 5.096 46.457 3.544C47.401 1.976 49.017 1.192 51.305 1.192C53.593 1.192 55.201 1.976 56.129 3.544C57.073 5.096 57.545 7.256 57.545 10.024C57.545 12.824 57.073 15.016 56.129 16.6C55.201 18.168 53.593 18.952 51.305 18.952C49.017 18.952 47.401 18.168 46.457 16.6C45.529 15.016 45.065 12.824 45.065 10.024ZM54.857 10.024C54.857 8.728 54.769 7.632 54.593 6.736C54.433 5.84 54.097 5.112 53.585 4.552C53.073 3.976 52.313 3.688 51.305 3.688C50.297 3.688 49.537 3.976 49.025 4.552C48.513 5.112 48.169 5.84 47.993 6.736C47.833 7.632 47.753 8.728 47.753 10.024C47.753 11.368 47.833 12.496 47.993 13.408C48.153 14.32 48.489 15.056 49.001 15.616C49.529 16.176 50.297 16.456 51.305 16.456C52.313 16.456 53.073 16.176 53.585 15.616C54.113 15.056 54.457 14.32 54.617 13.408C54.777 12.496 54.857 11.368 54.857 10.024Z" fill="#3A8375"/>
</svg>
